# xmcd CD database file
#
# Track frame offsets:
#	150
#	19186
#	40774
#	59353
#	74877
#	96767
#	116577
#	132188
#	153260
#	174804
#
# Disc length: 2536 seconds
#
# Revision: 1
# Processed by: cddbd v1.5.1PL0 Copyright (c) Steve Scherf et al.
# Submitted via: CDex 1.51
#
DISCID=8109e60a
DTITLE=Jeff Hobbs - Comfortably Southern
DYEAR=2004
DGENRE=Red Dirt
TTITLE0=Comfortably Southern
TTITLE1=Twins
TTITLE2=Overhead View
TTITLE3=The Captain
TTITLE4=Take Me Home
TTITLE5=Crow Named Joe
TTITLE6=One More Round
TTITLE7=Faded Life
TTITLE8=Carone Sky
TTITLE9=Down With The Rain
EXTD=YEAR: 2004
EXTT0=
EXTT1=
EXTT2=
EXTT3=
EXTT4=
EXTT5=
EXTT6=
EXTT7=
EXTT8=
EXTT9=
PLAYORDER=
